HIERARCHY
ROOT hip
{
  OFFSET 0 0 0
  CHANNELS 6 Xposition Yposition Zposition Zrotation Yrotation Xrotation
  JOINT abdomen
  {
    OFFSET 0 20.6881 -0.73152
    CHANNELS 3 Zrotation Xrotation Yrotation
    JOINT chest
    {
      OFFSET 0 11.7043 -0.48768
      CHANNELS 3 Zrotation Xrotation Yrotation
      JOINT neck
      {
        OFFSET 0 22.1894 -2.19456
        CHANNELS 3 Zrotation Xrotation Yrotation
        JOINT head
        {
          OFFSET -0.24384 7.07133 1.2192
          CHANNELS 3 Zrotation Xrotation Yrotation
          JOINT leftEye
          {
            OFFSET 4.14528 8.04674 8.04672
            CHANNELS 3 Zrotation Xrotation Yrotation
            End Site
            {
              OFFSET 1 0 0
            }
          }
          JOINT rightEye
          {
            OFFSET -3.6576 8.04674 8.04672
            CHANNELS 3 Zrotation Xrotation Yrotation
            End Site
            {
              OFFSET 1 0 0
            }
          }
        }
      }
      JOINT rCollar
      {
        OFFSET -2.68224 19.2634 -4.8768
        CHANNELS 3 Zrotation Xrotation Yrotation
        JOINT rShldr
        {
          OFFSET -8.77824 -1.95073 1.46304
          CHANNELS 3 Zrotation Xrotation Yrotation
          JOINT rForeArm
          {
            OFFSET -28.1742 -1.7115 0.48768
            CHANNELS 3 Zrotation Xrotation Yrotation
            JOINT rHand
            {
              OFFSET -22.5879 0.773209 7.07136
              CHANNELS 3 Zrotation Xrotation Yrotation
              JOINT rThumb1
              {
                OFFSET -1.2192 -0.487915 3.41376
                CHANNELS 3 Zrotation Xrotation Yrotation
                JOINT rThumb2
                {
                  OFFSET -3.37035 -0.52449 3.41376
                  CHANNELS 3 Zrotation Xrotation Yrotation
                  End Site
                  {
                    OFFSET -1.78271 -1.18214 1.43049
                  }
                }
              }
              JOINT rIndex1
              {
                OFFSET -7.75947 0.938293 5.60832
                CHANNELS 3 Zrotation Xrotation Yrotation
                JOINT rIndex2
                {
                  OFFSET -2.54057 -0.884171 1.56538
                  CHANNELS 3 Zrotation Xrotation Yrotation
                  End Site
                  {
                    OFFSET -1.62519 -0.234802 1.16502
                  }
                }
              }
              JOINT rMid1
              {
                OFFSET -8.24714 1.18213 3.41376
                CHANNELS 3 Zrotation Xrotation Yrotation
                JOINT rMid2
                {
                  OFFSET -3.10165 -0.590103 1.0647
                  CHANNELS 3 Zrotation Xrotation Yrotation
                  End Site
                  {
                    OFFSET -2.48547 -0.328903 0.83742
                  }
                }
              }
              JOINT rRing1
              {
                OFFSET -8.82822 0.546677 1.51678
                CHANNELS 3 Zrotation Xrotation Yrotation
                JOINT rRing2
                {
                  OFFSET -2.60934 -0.819778 -0.0198488
                  CHANNELS 3 Zrotation Xrotation Yrotation
                  End Site
                  {
                    OFFSET -2.33842 -0.294052 0.168128
                  }
                }
              }
              JOINT rPinky1
              {
                OFFSET -8.27202 -0.0477905 -0.4584
                CHANNELS 3 Zrotation Xrotation Yrotation
                JOINT rPinky2
                {
                  OFFSET -1.82734 -0.647385 -0.700984
                  CHANNELS 3 Zrotation Xrotation Yrotation
                  End Site
                  {
                    OFFSET -1.69225 -0.51767 -0.607171
                  }
                }
              }
            }
          }
        }
      }
      JOINT lCollar
      {
        OFFSET 2.68224 19.2634 -4.8768
        CHANNELS 3 Zrotation Xrotation Yrotation
        JOINT lShldr
        {
          OFFSET 8.77824 -1.95073 1.46304
          CHANNELS 3 Zrotation Xrotation Yrotation
          JOINT lForeArm
          {
            OFFSET 28.1742 -1.7115 0.48768
            CHANNELS 3 Zrotation Xrotation Yrotation
            JOINT lHand
            {
              OFFSET 22.5879 0.773209 7.07136
              CHANNELS 3 Zrotation Xrotation Yrotation
              JOINT lThumb1
              {
                OFFSET 1.2192 -0.487915 3.41376
                CHANNELS 3 Zrotation Xrotation Yrotation
                JOINT lThumb2
                {
                  OFFSET 3.37035 -0.52449 3.41376
                  CHANNELS 3 Zrotation Xrotation Yrotation
                  End Site
                  {
                    OFFSET 1.78271 -1.18214 1.43049
                  }
                }
              }
              JOINT lIndex1
              {
                OFFSET 7.75947 0.938293 5.60832
                CHANNELS 3 Zrotation Xrotation Yrotation
                JOINT lIndex2
                {
                  OFFSET 2.54057 -0.884171 1.56538
                  CHANNELS 3 Zrotation Xrotation Yrotation
                  End Site
                  {
                    OFFSET 1.62519 -0.234802 1.16502
                  }
                }
              }
              JOINT lMid1
              {
                OFFSET 8.24714 1.18213 3.41376
                CHANNELS 3 Zrotation Xrotation Yrotation
                JOINT lMid2
                {
                  OFFSET 3.10165 -0.590103 1.0647
                  CHANNELS 3 Zrotation Xrotation Yrotation
                  End Site
                  {
                    OFFSET 2.48547 -0.328903 0.83742
                  }
                }
              }
              JOINT lRing1
              {
                OFFSET 8.82822 0.546677 1.51678
                CHANNELS 3 Zrotation Xrotation Yrotation
                JOINT lRing2
                {
                  OFFSET 2.60934 -0.819778 -0.0198488
                  CHANNELS 3 Zrotation Xrotation Yrotation
                  End Site
                  {
                    OFFSET 2.33842 -0.294052 0.168128
                  }
                }
              }
              JOINT lPinky1
              {
                OFFSET 8.27202 -0.0477905 -0.4584
                CHANNELS 3 Zrotation Xrotation Yrotation
                JOINT lPinky2
                {
                  OFFSET 1.82734 -0.647385 -0.700984
                  CHANNELS 3 Zrotation Xrotation Yrotation
                  End Site
                  {
                    OFFSET 1.69225 -0.51767 -0.607171
                  }
                }
              }
            }
          }
        }
      }
    }
  }
  JOINT rButtock
  {
    OFFSET -8.77824 4.35084 1.2192
    CHANNELS 3 Zrotation Xrotation Yrotation
    JOINT rThigh
    {
      OFFSET 0 -1.70687 -2.19456
      CHANNELS 3 Zrotation Xrotation Yrotation
      JOINT rShin
      {
        OFFSET 0 -36.8199 0.73152
        CHANNELS 3 Zrotation Xrotation Yrotation
        JOINT rFoot
        {
          OFFSET 0.73152 -45.1104 -5.12064
          CHANNELS 3 Zrotation Xrotation Yrotation
          End Site
          {
            OFFSET -1.1221 -3.69964 12.103
          }
        }
      }
    }
  }
  JOINT lButtock
  {
    OFFSET 8.77824 4.35084 1.2192
    CHANNELS 3 Zrotation Xrotation Yrotation
    JOINT lThigh
    {
      OFFSET 0 -1.70687 -2.19456
      CHANNELS 3 Zrotation Xrotation Yrotation
      JOINT lShin
      {
        OFFSET 0 -36.8199 0.73152
        CHANNELS 3 Zrotation Xrotation Yrotation
        JOINT lFoot
        {
          OFFSET -0.73152 -45.1104 -5.12064
          CHANNELS 3 Zrotation Xrotation Yrotation
          End Site
          {
            OFFSET 1.1221 -3.69964 12.103
          }
        }
      }
    }
  }
}
MOTION
Frames:	4
Frame Time:	0.03333
-3.261600062251091 75.6885986328125 69.80301946401596 -107.70100235939026 53.763200640678406 -99.9901020526886 -0.9474250394850969 36.0877999663353 -4.4570401310920715 10.723800212144852 -12.744199633598328 0.32913699047639966 -9.768459722399712 20.384500175714493 -16.969499588012695 29.604501128196716 -23.105100989341736 -28.385498821735382 0.0 0.0 0.0 0.0 0.0 0.0 1.2789769243681803e-12 0.0 0.0 57.80829906463623 3.8154999911785126 -16.214099675416946 -25.075998902320862 -21.26199960708618 53.22129786014557 -0.013854299759259447 3.6728299409151077 0.516631007194519 -8.134293238981627e-10 -2.2663471099804156e-09 -2.22797780224937e-09 -1.4055956398806302e-09 -3.893205757776741e-09 -3.836930773104541e-09 -8.134293238981627e-10 -2.2663471099804156e-09 -2.22797780224937e-09 7.7309102565050125 5.474880114197731 0.41731400415301323 -8.134293238981627e-10 -2.2663471099804156e-09 -2.22797780224937e-09 2.905540131032467 0.9651830233633518 0.102901995414868 -8.134293238981627e-10 -2.2663471099804156e-09 -2.22797780224937e-09 10.27859978377819 0.7318009994924068 0.025912300043273717 -8.134293238981627e-10 -2.2663471099804156e-09 -2.22797780224937e-09 2.221670038998127 -0.733487019315362 -0.2089200052432716 1.2789769243681803e-12 0.0 0.0 -24.94959980249405 32.57300108671188 -57.69890248775482 28.307400941848755 -32.97270119190216 -72.02719867229462 1.5543600730597973 -33.02060008049011 5.2407001331448555 9.835332548391307e-10 -3.775539880734868e-09 4.049240942549659e-09 1.6076739939308027e-09 -6.512550498882774e-09 7.001119683991419e-09 9.835332548391307e-10 -3.775539880734868e-09 4.049240942549659e-09 -7.7309102565050125 5.474880114197731 -0.41731400415301323 9.835332548391307e-10 -3.775539880734868e-09 4.049240942549659e-09 -2.905540131032467 0.9651830233633518 -0.102901995414868 9.835332548391307e-10 -3.775539880734868e-09 4.049240942549659e-09 -10.27859978377819 0.7318009994924068 -0.025912300043273717 9.835332548391307e-10 -3.775539880734868e-09 4.049240942549659e-09 -2.221670038998127 -0.733487019315362 0.2089200052432716 0.0 0.0 0.0 -110.16099572181702 -24.3832004070282 -109.63299751281738 -177.46400356292725 38.72989922761917 177.7940011024475 5.0368499010801315 -9.173339903354645 9.721570014953613 0.0 0.0 0.0 46.02340221405029 -39.37339872121811 25.76840043067932 0.2994579914957285 45.955199003219604 -1.6674800589680672 2.287130020558834 -10.587200000882149 14.393000453710556
-2.734700068831444 74.03359985351562 70.29131945967674 -109.06900405883789 56.08069896697998 -99.45900321006775 -3.310699872672558 33.922900557518005 -3.2054898887872696 11.125200167298317 -12.080599665641785 0.3926349990069866 -9.85151968896389 20.773400366306305 -17.263500541448593 29.183099269866943 -23.714600801467896 -28.93059879541397 0.0 0.0 0.0 0.0 0.0 0.0 1.2789769243681803e-12 0.0 0.0 56.698299050331116 3.5791001468896866 -15.63710018992424 -25.74050009250641 -22.784700393676758 55.69720208644867 -0.0021106499843881465 1.015079990029335 0.1429129997268319 -1.6908074940147344e-09 -2.1742607714259066e-09 -1.0538769856793806e-09 -2.922462272181292e-09 -3.729496711457614e-09 -1.800799509510398e-09 -1.6908074940147344e-09 -2.1742607714259066e-09 -1.0538769856793806e-09 7.7309102565050125 5.474880114197731 0.41731400415301323 -1.6908074940147344e-09 -2.1742607714259066e-09 -1.0538769856793806e-09 2.905540131032467 0.9651830233633518 0.102901995414868 -1.6908074940147344e-09 -2.1742607714259066e-09 -1.0538769856793806e-09 10.27859978377819 0.7318009994924068 0.025912300043273717 -1.6908074940147344e-09 -2.1742607714259066e-09 -1.0538769856793806e-09 2.221670038998127 -0.733487019315362 -0.2089200052432716 1.2789769243681803e-12 0.0 0.0 -28.138199150562286 35.251100957393646 -53.129501938819885 28.35450053215027 -33.52789968252182 -72.92380213737488 1.594190038740635 -33.37170124053955 5.31204991042614 1.0180656317970715e-09 -4.000639819423668e-09 3.76019215764245e-09 1.6754597709223162e-09 -6.896243576193228e-09 6.497202775790356e-09 1.0180656317970715e-09 -4.000639819423668e-09 3.76019215764245e-09 -7.7309102565050125 5.474880114197731 -0.41731400415301323 1.0180656317970715e-09 -4.000639819423668e-09 3.76019215764245e-09 -2.905540131032467 0.9651830233633518 -0.102901995414868 1.0180656317970715e-09 -4.000639819423668e-09 3.76019215764245e-09 -10.27859978377819 0.7318009994924068 -0.025912300043273717 1.0180656317970715e-09 -4.000639819423668e-09 3.76019215764245e-09 -2.221670038998127 -0.733487019315362 0.2089200052432716 0.0 0.0 0.0 -107.99500465393066 -34.49990004301071 -106.24000310897827 -177.52700328826904 44.41499948501587 178.6899983882904 5.189540013670921 -12.13890016078949 8.455989807844162 0.0 0.0 0.0 46.77500009536743 -40.82810014486313 29.87410068511963 0.3843180136755109 49.30760085582733 -1.8303900584578514 1.9935000501573086 -12.194999903440475 12.256300449371338
-2.184200093150139 72.64209747314453 70.69931945204735 -111.94800138473511 57.42480218410492 -103.11399579048157 -3.476000055670738 33.146401047706604 -3.2309500873088837 11.009800136089325 -11.886899918317795 0.32057299045845866 -10.033400282263756 21.150899827480316 -17.459199875593185 28.7228000164032 -24.498200118541718 -29.26710069179535 0.0 0.0 0.0 0.0 0.0 0.0 0.0 0.0 0.0 55.60479998588562 3.6934199184179306 -14.79179933667183 -26.336800754070282 -24.331999719142914 58.18290174007416 -0.0004755140025736182 -1.1561299860477448 -0.16240099794231355 -3.069544618483633e-09 -4.005755727121141e-09 2.1896084945183247e-09 -5.3090332130523166e-09 -6.916707206983119e-09 3.7908876038272865e-09 -3.069544618483633e-09 -4.005755727121141e-09 2.1896084945183247e-09 7.7309102565050125 5.474880114197731 0.41731400415301323 -3.069544618483633e-09 -4.005755727121141e-09 2.1896084945183247e-09 2.905540131032467 0.9651830233633518 0.102901995414868 -3.069544618483633e-09 -4.005755727121141e-09 2.1896084945183247e-09 10.27859978377819 0.7318009994924068 0.025912300043273717 -3.069544618483633e-09 -4.005755727121141e-09 2.1896084945183247e-09 2.221670038998127 -0.733487019315362 -0.2089200052432716 0.0 0.0 0.0 -31.427700519561768 37.572099566459656 -48.30190122127533 28.39190125465393 -34.09679889678955 -73.84840250015259 1.6161499544978142 -33.54979991912842 5.3492699190974236 3.4020786188193597e-10 -6.701839083689265e-10 -8.697043085703626e-11 5.96003246755572e-10 -1.156195139628835e-09 -1.432454155292362e-10 3.4020786188193597e-10 -6.701839083689265e-10 -8.697043085703626e-11 -7.7309102565050125 5.474880114197731 -0.41731400415301323 3.4020786188193597e-10 -6.701839083689265e-10 -8.697043085703626e-11 -2.905540131032467 0.9651830233633518 -0.102901995414868 3.4020786188193597e-10 -6.701839083689265e-10 -8.697043085703626e-11 -10.27859978377819 0.7318009994924068 -0.025912300043273717 3.4020786188193597e-10 -6.701839083689265e-10 -8.697043085703626e-11 -2.221670038998127 -0.733487019315362 0.2089200052432716 0.0 0.0 0.0 -103.97300004959106 -41.8847993016243 -100.25399923324585 -177.43500351905823 50.85120141506195 179.15700316429138 4.965960122644901 -14.344000518321991 7.125990316271782 0.0 0.0 0.0 47.10789978504181 -42.048100233078 31.845800578594208 0.47581298276782036 52.41659760475159 -1.988849937915802 1.6654100641608238 -13.584999740123749 10.66590003669262
-1.6799000948667526 71.35150146484375 71.06971946358681 -114.8360002040863 58.5467004776001 -106.64899706840515 -3.499700054526329 32.09349989891052 -3.2698598876595497 10.906099900603294 -11.649599522352219 0.25187799241393805 -10.101400315761566 21.509900093078613 -17.665099650621414 28.252399563789368 -25.034599006175995 -29.662200808525085 0.0 0.0 0.0 0.0 0.0 0.0 0.0 0.0 0.0 54.685800075531006 4.16286014020443 -13.69670033454895 -26.802400052547455 -25.697700083255768 60.41510045528412 -0.008144500170601532 -2.3020900413393974 -0.32373300986364484 -3.340687726449687e-09 -5.20799403602723e-09 3.6629899113904685e-09 -5.779696721219807e-09 -9.009113455249462e-09 6.328377821773756e-09 -3.340687726449687e-09 -5.20799403602723e-09 3.6629899113904685e-09 7.7309102565050125 5.474880114197731 0.41731400415301323 -3.340687726449687e-09 -5.20799403602723e-09 3.6629899113904685e-09 2.905540131032467 0.9651830233633518 0.102901995414868 -3.340687726449687e-09 -5.20799403602723e-09 3.6629899113904685e-09 10.27859978377819 0.7318009994924068 0.025912300043273717 -3.340687726449687e-09 -5.20799403602723e-09 3.6629899113904685e-09 2.221670038998127 -0.733487019315362 -0.2089200052432716 0.0 0.0 0.0 -34.82410132884979 39.596598744392395 -43.32549959421158 28.403300642967224 -34.390801191329956 -74.34929966926575 1.4456799812614918 -32.066500782966614 5.047630034387112 -1.1254996934439987e-10 1.1971224012086168e-09 -1.8775381249724887e-09 -1.4708234630234074e-10 2.0617108020815067e-09 -3.2434854801977053e-09 -1.1254996934439987e-10 1.1971224012086168e-09 -1.8775381249724887e-09 -7.7309102565050125 5.474880114197731 -0.41731400415301323 -1.1254996934439987e-10 1.1971224012086168e-09 -1.8775381249724887e-09 -2.905540131032467 0.9651830233633518 -0.102901995414868 -1.1254996934439987e-10 1.1971224012086168e-09 -1.8775381249724887e-09 -10.27859978377819 0.7318009994924068 -0.025912300043273717 -1.1254996934439987e-10 1.1971224012086168e-09 -1.8775381249724887e-09 -2.221670038998127 -0.733487019315362 0.2089200052432716 0.0 0.0 0.0 -98.39070081710815 -47.96779990196228 -92.67449498176575 -177.3010003566742 57.49340236186981 179.33799862861633 4.696029983460903 -15.643100291490555 6.196360141038895 0.0 0.0 0.0 47.2586989402771 -43.218500912189484 33.20440113544464 0.5724429991096258 55.248602628707886 -2.159050013870001 1.4741700701415539 -14.773600548505783 9.757150188088417
